<svg width="304" height="215" viewBox="0 0 304 215" fill="none" xmlns="http://www.w3.org/2000/svg">
<path d="M70 105.6C70 85.4381 70 75.3572 73.9238 67.6563C77.3752 60.8825 82.8825 55.3752 89.6563 51.9238C97.3572 48 107.438 48 127.6 48H246.4C266.562 48 276.643 48 284.344 51.9238C291.117 55.3752 296.625 60.8825 300.076 67.6563C304 75.3572 304 85.4381 304 105.6V157.4C304 177.562 304 187.643 300.076 195.344C296.625 202.117 291.117 207.625 284.344 211.076C276.643 215 266.562 215 246.4 215H127.6C107.438 215 97.3572 215 89.6563 211.076C82.8825 207.625 77.3752 202.117 73.9238 195.344C70 187.643 70 177.562 70 157.4V105.6Z" fill="url(#paint0_linear_42_39)"/>
<path d="M176.4 0C196.562 1.68804e-10 206.643 8.84533e-05 214.344 3.92383C221.118 7.37526 226.625 12.8825 230.076 19.6562C233.398 26.175 233.906 34.3993 233.984 49H127.6C107.438 49 97.357 49.0001 89.6562 52.9238C82.8825 56.3753 77.3753 61.8825 73.9238 68.6562C70.0001 76.357 70 86.438 70 106.6V158.4C70 161.495 70.0014 164.352 70.0156 167H57.5996C37.438 167 27.357 167 19.6562 163.076C12.8825 159.625 7.37526 154.118 3.92383 147.344C8.84533e-05 139.643 1.68811e-10 129.562 0 109.4V57.5996C1.65571e-10 37.438 8.82149e-05 27.357 3.92383 19.6562C7.37526 12.8825 12.8825 7.37526 19.6562 3.92383C27.357 8.82149e-05 37.438 1.65578e-10 57.5996 0H176.4Z" fill="white" fill-opacity="0.26"/>
<defs>
<linearGradient id="paint0_linear_42_39" x1="98.0855" y1="9.45309e-06" x2="327.37" y2="217.074" gradientUnits="userSpaceOnUse">
<stop stop-color="white"/>
<stop offset="0.580908" stop-color="#FFF1E5" stop-opacity="0.976823"/>
<stop offset="1" stop-color="#FFBF8A" stop-opacity="0.893886"/>
</linearGradient>
</defs>
</svg>
